<?xml version="1.0" encoding="UTF-8"?>
<svg width="1951px" height="1228px" viewBox="0 0 1951 1228" version="1.1" xmlns="http://www.w3.org/2000/svg" xmlns:xlink="http://www.w3.org/1999/xlink">
    <title>F340DF7C-1781-4879-B0D3-3DF174B78B5C</title>
    <g id="Page-1" stroke="none" stroke-width="1" fill="none" fill-rule="evenodd">
        <g id="01.0_Landing_Screen_Carousel" transform="translate(222, 215)">
            <g id="Group-3" transform="translate(-221.3879, -214.3251)">
                <g id="Group" transform="translate(0, -0)">
                    <g id="Group-13" opacity="0.0660109747" transform="translate(198.9456, 674.1779) rotate(-8) translate(-198.9456, -674.1779)translate(22.9456, 496.9997)">
                        <ellipse id="Oval" stroke="#EE2524" stroke-width="5" cx="176" cy="180.356249" rx="173.5" ry="171.5"></ellipse>
                        <ellipse id="Oval" fill="#EE2524" cx="262.712735" cy="34" rx="34.5" ry="34"></ellipse>
                    </g>
                    <g id="Group-13" opacity="0.0978655134" transform="translate(1573.8919, 242.0675) scale(-1, -1) rotate(23) translate(-1573.8919, -242.0675)translate(1380.9985, 60.9733)">
                        <circle id="Oval" stroke="#3C72B8" stroke-width="5" cx="181.094117" cy="181.094118" r="178.594118"></circle>
                        <circle id="Oval" fill="#3C72B8" cx="350.001672" cy="131.977443" r="35.7850651"></circle>
                    </g>
                    <g id="Group-13-Copy" opacity="0.0660109747" transform="translate(1726.9456, 1005.1779) rotate(-108) translate(-1726.9456, -1005.1779)translate(1550.9456, 827.9997)">
                        <ellipse id="Oval" stroke="#EE2524" stroke-width="5" cx="176" cy="180.356249" rx="173.5" ry="171.5"></ellipse>
                        <ellipse id="Oval" fill="#EE2524" cx="262.712735" cy="34" rx="34.5" ry="34"></ellipse>
                    </g>
                    <g id="Group-13" opacity="0.07" transform="translate(692.1215, 560.8627) rotate(-8) translate(-692.1215, -560.8627)translate(453.659, 449.9607)">
                        <circle id="Oval" stroke="#EE2524" stroke-width="5" cx="415.830808" cy="160.709837" r="58.5941175"></circle>
                        <circle id="Oval-Copy" stroke="#EE2524" stroke-width="5" cx="66.2929583" cy="61.0941175" r="58.5941175"></circle>
                        <circle id="Oval-Copy" fill="#EE2524" cx="18" cy="31.0809507" r="18"></circle>
                        <circle id="Oval" fill="#EE2524" cx="420.273915" cy="146.320473" r="12.0724903"></circle>
                    </g>
                </g>
            </g>
        </g>
    </g>
</svg>